<svg width="50" height="48" viewBox="0 0 50 48" fill="none" xmlns="http://www.w3.org/2000/svg">
<path d="M43.637 14.196C41.9388 13.2074 40.5269 11.6824 39.7793 9.86511C38.9763 7.91301 37.7467 6.14554 36.1505 4.6858C33.4773 2.23875 30.0021 0.891846 26.3829 0.891846C23.5863 0.891846 20.8616 1.69382 18.5277 3.20523C17.0166 4.1806 15.7045 5.42328 14.6591 6.8656C14.1212 7.60755 13.2236 8.00679 12.3072 8.00679C7.93749 8.00679 4.38001 11.5643 4.38001 15.934C4.38001 16.9445 4.00253 17.9398 3.28351 18.6499C1.21484 20.6927 0 23.5063 0 26.4727C0 29.3208 1.05902 32.0866 2.99198 34.2766C4.97635 36.518 7.59819 37.8443 10.3948 37.9985C10.4257 37.9985 10.4462 37.9985 10.4771 37.9985H19.3193C20.0905 37.9985 20.7074 37.3816 20.7074 36.6105C20.7074 35.8394 20.0905 35.2225 19.3193 35.2225H10.5182C6.31298 34.9654 2.77606 30.9658 2.77606 26.4625C2.77606 23.5527 4.33889 20.8384 6.85791 19.3681C7.44396 19.0288 7.69073 18.3193 7.46453 17.6819C7.25889 17.1267 7.15608 16.5406 7.15608 15.9134C7.15608 13.0757 9.46946 10.7623 12.3072 10.7623C12.9138 10.7623 13.5102 10.8651 14.0654 11.0707C14.744 11.3175 15.4946 11.009 15.803 10.3613C17.7257 6.27946 21.8795 3.64734 26.3932 3.64734C32.4594 3.64734 37.4666 8.19186 38.0424 14.2169C38.1041 14.8441 38.577 15.3479 39.1939 15.4507C43.7693 16.2322 47.2239 20.4579 47.2239 25.2801C47.2239 30.3901 43.2038 34.8318 38.248 35.2122H30.6704C29.8992 35.2122 29.2823 35.8291 29.2823 36.6002C29.2823 37.3714 29.8992 37.9883 30.6704 37.9883H38.2994C38.3302 37.9883 38.3611 37.9883 38.4022 37.9883C41.5381 37.7621 44.4684 36.3226 46.6482 33.9167C48.8176 31.5313 50 28.4674 50 25.2801C49.9917 20.6388 47.4404 16.4102 43.637 14.196Z" fill="url(#paint0_linear)"/>
<path d="M33.3332 27.7888C33.8781 27.2439 33.8781 26.3699 33.3332 25.825L25.9817 18.4736C25.7247 18.2165 25.3648 18.0623 25.005 18.0623C24.6451 18.0623 24.2852 18.2063 24.0282 18.4736L16.6768 25.825C16.1318 26.3699 16.1318 27.2439 16.6768 27.7888C16.9441 28.0561 17.3039 28.2001 17.6535 28.2001C18.0031 28.2001 18.363 28.0664 18.6303 27.7888C20.4705 25.9486 23.6169 27.2519 23.6169 29.8544V45.7201C23.6169 46.4913 24.2338 47.1082 25.005 47.1082C25.7761 47.1082 26.393 46.4913 26.393 45.7201V29.8544C26.393 27.2519 29.5394 25.9486 31.3796 27.7888C31.9143 28.3338 32.7882 28.3338 33.3332 27.7888Z" fill="url(#paint1_linear)"/>
<defs>
<linearGradient id="paint0_linear" x1="0" y1="0.891846" x2="54.6876" y2="10.0712" gradientUnits="userSpaceOnUse">
<stop stop-color="#00EFE6"/>
<stop offset="1" stop-color="#00EB90"/>
</linearGradient>
<linearGradient id="paint1_linear" x1="16.2681" y1="18.0623" x2="35.8088" y2="19.5267" gradientUnits="userSpaceOnUse">
<stop stop-color="#00EFE6"/>
<stop offset="1" stop-color="#00EB90"/>
</linearGradient>
</defs>
</svg>
