<svg width="38" height="50" viewBox="0 0 38 50" fill="none" xmlns="http://www.w3.org/2000/svg">
<path fill-rule="evenodd" clip-rule="evenodd" d="M37.4049 12.7674L24.9827 0.345197C24.792 0.133303 24.5156 0 24.2083 0H3.375C1.65205 0 0.25 1.40205 0.25 3.125V46.875C0.25 48.5979 1.65205 50 3.375 50H34.625C36.3479 50 37.75 48.5979 37.75 46.875V13.5417C37.75 13.2345 37.6168 12.9581 37.4049 12.7674ZM27.8689 12.5C30.2022 12.5 31.3706 9.67903 29.7208 8.02919C28.071 6.37936 25.25 7.54784 25.25 9.88106V11.4583C25.25 12.0312 25.7167 12.5 26.2917 12.5H27.8689ZM34.625 47.9167C35.2 47.9167 35.6667 47.4479 35.6667 46.875V19.5833C35.6667 16.8219 33.4281 14.5833 30.6667 14.5833H26.2917C24.5687 14.5833 23.1667 13.1812 23.1667 11.4583V7.0833C23.1667 4.32188 20.9281 2.0833 18.1667 2.0833H3.375C2.8 2.0833 2.3333 2.55205 2.3333 3.125V46.875C2.3333 47.4479 2.8 47.9167 3.375 47.9167H34.625Z" fill="url(#paint0_linear)"/>
<defs>
<linearGradient id="paint0_linear" x1="0.25" y1="0" x2="42.0564" y2="3.90579" gradientUnits="userSpaceOnUse">
<stop stop-color="#00EFE6"/>
<stop offset="1" stop-color="#00EB90"/>
</linearGradient>
</defs>
</svg>
