<svg width="20" height="20" viewBox="0 0 20 20" fill="none" xmlns="http://www.w3.org/2000/svg">
<path d="M19.7556 18.5782L14.0682 12.8908C15.1699 11.53 15.8332 9.80082 15.8332 7.91752C15.8332 3.55256 12.2815 0.000915527 7.91656 0.000915527C3.55161 0.000915527 0 3.55252 0 7.91748C0 12.2824 3.55165 15.8341 7.9166 15.8341C9.7999 15.8341 11.5291 15.1708 12.8899 14.0691L18.5773 19.7565C18.7398 19.919 18.9531 20.0007 19.1665 20.0007C19.3798 20.0007 19.5932 19.919 19.7557 19.7565C20.0815 19.4307 20.0815 18.904 19.7556 18.5782ZM7.9166 14.1674C4.46996 14.1674 1.66666 11.3641 1.66666 7.91748C1.66666 4.47083 4.46996 1.66754 7.9166 1.66754C11.3632 1.66754 14.1665 4.47083 14.1665 7.91748C14.1665 11.3641 11.3632 14.1674 7.9166 14.1674Z" fill="white"/>
</svg>
